# xmcd
#
# Track frame offsets: 
#        150
#        12932
#        22772
#        35911
#        46748
#        59597
#        69923
#        80068
#        89547
#        101111
#        112716
#        123549
#        132928
#        143639
#        154521
#
# Disc length: 2211 seconds
#
# Revision: 0
# Processed by: cddbd v1.5.1PL0 Copyright (c) Steve Scherf et al.
# Submitted via: ExactAudioCopy v0.95a5
#
DISCID=c108a10f
DTITLE=Patsy Cline - Sweet, Sweet Dreams
DYEAR=1900
DGENRE=Country
TTITLE0=Just a Closer Walk With Thee
TTITLE1=I'm Blue Again
TTITLE2=Life's Halfway to Heaven
TTITLE3=Stop, Look, and Listen
TTITLE4=Yes I Understand
TTITLE5=Three Cigarettes in an Ashtray
TTITLE6=Pick Me Up On Your Way Down
TTITLE7=Love Me, Love Me Honey Do
TTITLE8=The Heart You Break May Be Your Own
TTITLE9=I've Loved and Lost Again
TTITLE10=I Can See an Angel
TTITLE11=Come On In
TTITLE12=Gotta Lotta Rhythm
TTITLE13=Honky Tonk Merry Go Round
TTITLE14=Cry Not For Me
EXTD=
EXTT0=
EXTT1=
EXTT2=
EXTT3=
EXTT4=
EXTT5=
EXTT6=
EXTT7=
EXTT8=
EXTT9=
EXTT10=
EXTT11=
EXTT12=
EXTT13=
EXTT14=
PLAYORDER=
